<svg xmlns="http://www.w3.org/2000/svg" version="1.1" xmlns:xlink="http://www.w3.org/1999/xlink" xmlns:svgjs="http://svgjs.dev/svgjs" width="100%" height="100%" viewBox="0 0 1000 600"><rect width="1000" height="600" x="0" y="0" fill="#d2302c"/><g><rect width="333.3333333333333" height="333.3333333333333" rx="13.333333333333334" ry="13.333333333333334" y="201.32843925772855" fill="#f7f7f9" transform="matrix(0.6979097919788083,0,0,0.6979097919788084,0,43.17258706187192)" x="179.1061553955078"/><path d="M403.4110348786941 292.99511445261777L403.4110348786941 442.9951184767174L383.54387279071994 442.9951184767174L308.0310752970484 327.39636561969974L308.0310752970484 442.9951184767174L288.13461061012447 442.9951184767174L288.13461061012447 292.99511445261777L308.0310752970484 292.99511445261777L383.7489909833687 409.09201149178216L383.7489909833687 292.99511445261777L403.4110348786941 292.99511445261777Z " fill="#d2302c" transform="matrix(0.6979097919788083,0,0,0.6979097919788084,0,43.17258706187192)"/><path d="M703.6521612775618 300.7007818305949L703.6521612775618 441.07555135349344L685.0598397818546 441.07555135349344L614.3925647163126 332.8945656594449L614.3925647163126 441.07555135349344L595.7728209175144 441.07555135349344L595.7728209175144 300.7007818305949L614.3925647163126 300.7007818305949L685.2517959034917 409.34794667719075L685.2517959034917 300.7007818305949L703.6521612775618 300.7007818305949ZM729.0177916367495 389.2199762083868L729.0177916367495 387.95855026620006Q729.0177916367495 372.6294828383235 735.0232760136814 360.3717133566405Q741.0561826937044 348.14136617804843 751.8057255053818 341.47774652693215Q762.555268317059 334.8415491789068 776.3486867718389 334.8415491789068L776.3486867718389 334.8415491789068Q797.6558162735564 334.8415491789068 810.8185217572429 349.59474824187214Q823.9812272409295 364.3479473048375 823.9812272409295 388.83606396511254L823.9812272409295 388.83606396511254L823.9812272409295 390.07006760420813Q823.9812272409295 405.3168681228117 818.1402766825436 417.41010378594876Q812.2993261241577 429.50333944908573 801.4675164032074 436.249226009475Q790.608284379166 442.99511256986443 776.5406428934759 442.99511256986443L776.5406428934759 442.99511256986443Q755.3432026041226 442.99511256986443 742.180497120436 428.2419135068991Q729.0177916367495 413.5161367470248 729.0177916367495 389.2199762083868L729.0177916367495 389.2199762083868ZM746.9519778582724 390.07006760420813L746.9519778582724 390.07006760420813Q746.9519778582724 407.42838546081975 754.9867126639392 417.931127544678Q763.0488697726973 428.4338696285362 776.5406428934759 428.4338696285362L776.5406428934759 428.4338696285362Q790.1421052266187 428.4338696285362 798.1219954261037 417.7940160292229Q806.1293079286795 407.1267401268186 806.1293079286795 387.95855026620006L806.1293079286795 387.95855026620006Q806.1293079286795 370.79218853122563 797.9848839106487 360.1523349319124Q789.8404598926174 349.4850590295081 776.3486867718389 349.4850590295081L776.3486867718389 349.4850590295081Q763.1311366819702 349.4850590295081 755.0415572701213 359.98780111336623Q746.9519778582724 370.51796550031554 746.9519778582724 390.07006760420813ZM911.1293064641707 441.07555135349344L910.7453942208965 430.76476539127236Q900.3249190463114 442.99511256986443 880.1695262744163 442.99511256986443L880.1695262744163 442.99511256986443Q863.4967659950801 442.99511256986443 854.7764736121378 433.31503957873656Q846.0561812291953 423.6349665876088 845.9464920168314 404.6313105455364L845.9464920168314 404.6313105455364L845.9464920168314 336.7611103952778L863.7984113290813 336.7611103952778L863.7984113290813 404.1651313929891Q863.7984113290813 427.85800126362494 883.0762904020637 427.85800126362494L883.0762904020637 427.85800126362494Q903.5059062048688 427.85800126362494 910.2517927652582 412.6386230481123L910.2517927652582 412.6386230481123L910.2517927652582 336.7611103952778L928.1037120775081 336.7611103952778L928.1037120775081 441.07555135349344L911.1293064641707 441.07555135349344ZM1005.5991406127123 336.18524203036645L1005.5991406127123 352.77573540042965Q1001.5406397552424 352.09017782315436 996.8240036235882 352.09017782315436L996.8240036235882 352.09017782315436Q979.2737296453392 352.09017782315436 973.0214445405882 367.0353330077568L973.0214445405882 367.0353330077568L973.0214445405882 441.07555135349344L955.1695252283384 441.07555135349344L955.1695252283384 336.7611103952778L972.5278430849501 336.7611103952778L972.8294884189511 348.8269237553237Q981.6046254080754 334.8415491789068 997.7015173225004 334.8415491789068L997.7015173225004 334.8415491789068Q1002.911754909793 334.8415491789068 1005.5991406127123 336.18524203036645L1005.5991406127123 336.18524203036645ZM1041.3578238433943 336.7611103952778L1041.3578238433943 441.07555135349344L1023.5333268342354 441.07555135349344L1023.5333268342354 336.7611103952778L1041.3578238433943 336.7611103952778ZM1022.0799447704117 309.0920065764451L1022.0799447704117 309.0920065764451Q1022.0799447704117 304.7592826880649 1024.73990817024 301.77025165114446Q1027.3998715700682 298.7812206142239 1032.5826868542697 298.7812206142239Q1037.7929244415623 298.7812206142239 1040.5077324475726 301.77025165114446Q1043.1951181504921 304.7592826880649 1043.1951181504921 309.0920065764451Q1043.1951181504921 313.4247304648252 1040.5077324475726 316.3314945924726Q1037.7929244415623 319.2108364170291 1032.5826868542697 319.2108364170291Q1027.3998715700682 319.2108364170291 1024.73990817024 316.3314945924726Q1022.0799447704117 313.4247304648252 1022.0799447704117 309.0920065764451ZM1130.6448427077344 413.40644753466074L1130.6448427077344 413.40644753466074Q1130.6448427077344 406.1669595186331 1125.1878043926226 402.1633032673452Q1119.758188380602 398.18706931914824 1106.2115706536413 395.2803051915008Q1092.6649529266806 392.4009633669443 1084.7124850302866 388.34246250947433Q1076.7600171338927 384.28396165200434 1072.9483170042417 378.6898118214375Q1069.136616874591 373.0956619908708 1069.136616874591 365.389994822296L1069.136616874591 365.389994822296Q1069.136616874591 352.5837792787926 1079.9684265955414 343.69895307730417Q1090.8276586195827 334.8415491789068 1107.692375020556 334.8415491789068L1107.692375020556 334.8415491789068Q1125.4346051204418 334.8415491789068 1136.4857932661203 344.0005984113053Q1147.5095591087077 353.1596476437039 1147.5095591087077 367.41924525103093L1147.5095591087077 367.41924525103093L1129.5753728871848 367.41924525103093Q1129.5753728871848 360.0974903257303 1123.3505100855248 354.8049858291647Q1117.1530695869556 349.4850590295081 1107.692375020556 349.4850590295081L1107.692375020556 349.4850590295081Q1097.9574574232463 349.4850590295081 1092.4729968050435 353.73551600861515Q1086.9611138837497 357.98597298772233 1086.9611138837497 364.81412645738465L1086.9611138837497 364.81412645738465Q1086.9611138837497 371.28578998686385 1092.0890845617694 374.5490440546945Q1097.1896329366978 377.8397204256162 1110.5442945420214 380.8287514625366Q1123.898956147345 383.81778249945705 1132.1804916808312 387.95855026620006Q1140.4620272143172 392.0993180329432 1144.4656834656053 397.9402685913291Q1148.4693397168933 403.7537968466239 1148.4693397168933 412.1450215924741L1148.4693397168933 412.1450215924741Q1148.4693397168933 426.130396168891 1137.2810400557596 434.5764655209232Q1126.1201626977172 442.99511256986443 1108.2682433854673 442.99511256986443L1108.2682433854673 442.99511256986443Q1095.736250872874 442.99511256986443 1086.1110224879283 438.5801217722112Q1076.4583717998914 434.13770867146707 1071.00133348478 426.1852407750731Q1065.5717174727592 418.23277287867916 1065.5717174727592 408.9640344339166L1065.5717174727592 408.9640344339166L1083.396214481918 408.9640344339166Q1083.8898159375562 417.931127544678 1090.5808578917636 423.19620973815256Q1097.271899845971 428.4338696285362 1108.2682433854673 428.4338696285362L1108.2682433854673 428.4338696285362Q1118.3870732260514 428.4338696285362 1124.5296691184383 424.34794646797513Q1130.6448427077344 420.2620233074141 1130.6448427077344 413.40644753466074ZM1189.5479497472315 292.9951146620201L1189.5479497472315 349.40279212023506Q1201.3943846825493 334.8415491789068 1220.398040724622 334.8415491789068L1220.398040724622 334.8415491789068Q1253.4693382523842 334.8415491789068 1253.7435612832944 372.1358813826853L1253.7435612832944 372.1358813826853L1253.7435612832944 441.07555135349344L1235.9190642741355 441.07555135349344L1235.9190642741355 372.05361447341227Q1235.8093750617716 360.75562559991465 1230.763671293025 355.38085419407605Q1225.6905452211874 349.9786604851463 1214.9958470156923 349.9786604851463L1214.9958470156923 349.9786604851463Q1206.330399238932 349.9786604851463 1199.7764688001796 354.5856074044366Q1193.1951160583362 359.2199766268179 1189.5479497472315 366.73368767375564L1189.5479497472315 366.73368767375564L1189.5479497472315 441.07555135349344L1171.6960304349816 441.07555135349344L1171.6960304349816 292.9951146620201L1189.5479497472315 292.9951146620201Z " fill="#f7f7f9" transform="matrix(0.6979097919788083,0,0,0.6979097919788084,0,43.17258706187192)"/></g></svg>